<?xml version="1.0" encoding="UTF-8"?>
<svg xmlns="http://www.w3.org/2000/svg" version="1.2" viewBox="0 0 701 701" width="160" height="160">
  <title>Ipsia Logo-ai</title>
  <style>
		.s0 { fill: #455b71;stroke: #455b71;stroke-width: 1.4 } 
		.s1 { fill: none;stroke: #455b71;stroke-width: 2.8 } 
		.s2 { fill: none;stroke: #455b71;stroke-width: 2 } 
		.s3 { fill: #455b71 } 
		.s4 { fill: #455b71;stroke: #455b71;stroke-width: .6 } 
		.s5 { fill: none;stroke: #455b71;stroke-width: 1.4 } 
	</style>
  <g id="Livello 1">
    <path id="&lt;Compound Path&gt;" fill-rule="evenodd" class="s0" d="m349.5 615c-153.1 0-276.8-119-276.8-266.3 0-147.3 123.7-266.3 276.8-266.3 153.1 0 276.8 119 276.8 266.3 0 147.3-123.7 266.3-276.8 266.3zm-126.2-484.5c-98.4 62-121.3 210.7-51.1 332.1 70.3 121.5 207 169.7 305.4 107.7 98.4-61.9 121.3-210.6 51.1-332.1-70.3-121.4-207-169.7-305.4-107.7z" fill="#455b71"></path>
    <path id="&lt;Path&gt;" class="s1" d="m378.6 595.2c-104.1 0-188.3-82.5-188.3-184.6 0-102 84.2-184.5 188.3-184.5 104.1 0 188.2 82.5 188.2 184.5 0 102.1-84.1 184.6-188.2 184.6z" fill="#455b71"></path>
    <path id="&lt;Path&gt;" class="s1" d="m320.4 477.5c-104.1 0-188.3-83.9-188.3-187.6 0-103.8 84.2-187.7 188.3-187.7 104.1 0 188.2 83.9 188.2 187.7 0 103.7-84.1 187.6-188.2 187.6z" fill="#455b71"></path>
    <path id="&lt;Path&gt;" class="s1" d="m215.1 222.4c-12.3 0-22.3-10-22.3-22.3 0-12.3 10-22.3 22.3-22.3 12.3 0 22.3 10 22.3 22.3 0 12.3-10 22.3-22.3 22.3z" fill="#455b71"></path>
    <path id="&lt;Path&gt;" class="s2" d="m304 475c-11.3 0-20.5-9.1-20.5-20.4 0-11.3 9.2-20.4 20.5-20.4 11.3 0 20.4 9.1 20.4 20.4 0 11.3-9.1 20.4-20.4 20.4z" fill="#455b71"></path>
    <path id="&lt;Path&gt;" class="s3" d="m202.7 476h131.9v16.1h-131.9z" fill="#455b71"></path>
    <path id="&lt;Path&gt;" class="s0" d="m203.3 163.5h81.2v14.3h-81.2z" fill="#455b71"></path>
    <path id="&lt;Path&gt;" class="s4" d="m238.6 166h44v318.3h-44z" fill="#455b71"></path>
    <path id="&lt;Path&gt;" class="s4" d="m280.7 211.2q1.6-13.6 3.1-27.2c33.7-27.9 101.4-37.8 154.9-11.2 80.9 43 72 116.9 64.4 171.6-44.6 93.9-112.7 86.9-117.1 88.5 24.9 13.5 50.9 26.9 77.4 37.8 11.4 4.7 21.2 8.1 33.5 9.3 7.4 0.7 18.5-1.5 24.7-3.7q5 5.2 9.9 10.5c-13.8 10.9-36.8 17.6-56.3 16.1-30.4-2.4-58-15-85.8-27.6-38.2-17.3-78.6-43.7-115.2-64.4 5.2-10.3 13.5-18.4 19.5-28.1 17.5 14 35.4 20.4 55.2 29.1 28.3 12.3 68.9 1.8 90.4-20.5 24.5-25.4 31.1-67.1 26.6-102.1-5.3-41.7-27.9-82.9-63.8-100.4-45.4-22-96.4-4.3-121.4 22.3z" fill="#455b71"></path>
    <path id="&lt;Path&gt;" class="s1" d="m241.9 33.5v138.1" fill="#455b71"></path>
    <path id="&lt;Path&gt;" class="s1" d="m278.2 34.1v135" fill="#455b71"></path>
    <path id="&lt;Path&gt;" class="s1" d="m119.1 163.5h175.9" fill="#455b71"></path>
    <path id="&lt;Path&gt;" class="s1" d="m118.5 178.4h175.2" fill="#455b71"></path>
    <path id="&lt;Path&gt;" class="s1" d="m218.2 92.3l284.2 566" fill="#455b71"></path>
    <path id="&lt;Path&gt;" class="s1" d="m279.6 664.5v-197.5" fill="#455b71"></path>
    <path id="&lt;Path&gt;" class="s1" d="m241.8 664.5v-189.5" fill="#455b71"></path>
    <path id="&lt;Path&gt;" class="s1" d="m189.1 477.5h174.6" fill="#455b71"></path>
    <path id="&lt;Path&gt;" class="s1" d="m189.7 492.4h174.6" fill="#455b71"></path>
    <path id="&lt;Path&gt;" class="s1" d="m306.1 365.4l-33.4 46.5" fill="#455b71"></path>
    <path id="&lt;Path&gt;" class="s1" d="m73.3 82.4h553.6v533.8h-553.6z" fill="#455b71"></path>
    <path id="&lt;Path&gt;" class="s5" d="m223.3 130.5c98.4-62 235.1-13.7 305.4 107.7 70.2 121.5 47.3 270.2-51.1 332.1-98.4 62-235.1 13.8-305.4-107.7-70.2-121.4-47.3-270.1 51.1-332.1z" fill="#455b71"></path>
  </g>
</svg>
